<?xml version="1.0" encoding="utf-8"?>
<svg version="1.1" xmlns:xlink="http://www.w3.org/1999/xlink" width="72px" height="72px" xmlns="http://www.w3.org/2000/svg">
  <g transform="matrix(1 0 0 1 -33 -125 )">
    <path d="M 50.3035714285714 63.3415178571429  C 54.7232142857143 60.9977678571429  58.3526785714286 57.8169642857143  61.1919642857143 53.7991071428571  C 60.6026785714286 49.6473214285714  59.4308035714286 46.1986607142857  57.6763392857143 43.453125  C 55.921875 40.7075892857143  53.4508928571429 39.1205357142857  50.2633928571429 38.6919642857143  C 48.46875 40.6741071428571  46.3325892857143 42.2209821428571  43.8549107142857 43.3325892857143  C 41.3772321428572 44.4441964285714  38.7589285714286 45  36 45  C 33.2410714285714 45  30.6227678571429 44.4441964285714  28.1450892857143 43.3325892857143  C 25.6674107142857 42.2209821428571  23.53125 40.6741071428571  21.7366071428571 38.6919642857143  C 18.5491071428571 39.1205357142857  16.078125 40.7075892857143  14.3236607142857 43.453125  C 12.5691964285714 46.1986607142857  11.3973214285714 49.6473214285714  10.8080357142857 53.7991071428571  C 13.6473214285714 57.8169642857143  17.2767857142857 60.9977678571429  21.6964285714286 63.3415178571429  C 26.1160714285714 65.6852678571429  30.8839285714286 66.8571428571429  36 66.8571428571429  C 41.1160714285714 66.8571428571429  45.8839285714286 65.6852678571429  50.3035714285714 63.3415178571429  Z M 46.9084821428571 36.6227678571429  C 49.921875 33.609375  51.4285714285714 29.9732142857143  51.4285714285714 25.7142857142857  C 51.4285714285714 21.4553571428571  49.921875 17.8191964285714  46.9084821428571 14.8058035714286  C 43.8950892857143 11.7924107142857  40.2589285714286 10.2857142857143  36 10.2857142857143  C 31.7410714285714 10.2857142857143  28.1049107142857 11.7924107142857  25.0915178571429 14.8058035714286  C 22.078125 17.8191964285714  20.5714285714286 21.4553571428571  20.5714285714286 25.7142857142857  C 20.5714285714286 29.9732142857143  22.078125 33.609375  25.0915178571429 36.6227678571429  C 28.1049107142857 39.6361607142857  31.7410714285714 41.1428571428571  36 41.1428571428571  C 40.2589285714286 41.1428571428571  43.8950892857143 39.6361607142857  46.9084821428571 36.6227678571429  Z M 69.1473214285714 22.0178571428571  C 71.0491071428572 26.4642857142857  72 31.125  72 36  C 72 40.875  71.0491071428572 45.5290178571428  69.1473214285714 49.9620535714286  C 67.2455357142857 54.3950892857143  64.6941964285714 58.2254464285714  61.4933035714286 61.453125  C 58.2924107142857 64.6808035714286  54.46875 67.2455357142857  50.0223214285714 69.1473214285714  C 45.5758928571429 71.0491071428571  40.9017857142857 72  36 72  C 31.125 72  26.4642857142857 71.0491071428571  22.0178571428571 69.1473214285714  C 17.5714285714286 67.2455357142857  13.7410714285714 64.6875  10.5267857142857 61.4732142857143  C 7.3125 58.2589285714286  4.75446428571429 54.4285714285714  2.85267857142857 49.9821428571429  C 0.950892857142857 45.5357142857143  0 40.875  0 36  C 0 31.125  0.950892857142857 26.4642857142857  2.85267857142857 22.0178571428571  C 4.75446428571429 17.5714285714286  7.3125 13.7410714285714  10.5267857142857 10.5267857142857  C 13.7410714285714 7.3125  17.5714285714286 4.75446428571428  22.0178571428571 2.85267857142857  C 26.4642857142857 0.950892857142857  31.125 0  36 0  C 40.875 0  45.5357142857143 0.950892857142857  49.9821428571429 2.85267857142857  C 54.4285714285714 4.75446428571428  58.2589285714286 7.3125  61.4732142857143 10.5267857142857  C 64.6875 13.7410714285714  67.2455357142857 17.5714285714286  69.1473214285714 22.0178571428571  Z " fill-rule="nonzero" fill="#000000" stroke="none" fill-opacity="0.12156862745098" transform="matrix(1 0 0 1 33 125 )" />
  </g>
</svg>