<?xml version="1.0" encoding="utf-8"?>
<svg version="1.1" xmlns:xlink="http://www.w3.org/1999/xlink" width="140px" height="84px" xmlns="http://www.w3.org/2000/svg">
  <g transform="matrix(1 0 0 1 -530 -350 )">
    <path d="M 92.640625 45.2514204545455  C 93.1024305555556 44.8735795454545  93.3333333333333 44.4261363636364  93.3333333333333 43.9090909090909  C 93.3333333333333 43.3522727272727  93.1145833333333 42.8948863636364  92.6770833333333 42.5369318181818  L 67.0104166666667 21.5369318181818  C 66.5729166666667 21.1789772727273  66.0138888888889 21  65.3333333333333 21  C 64.6527777777778 21  64.09375 21.1789772727273  63.65625 21.5369318181818  L 38.0625 42.4772727272727  C 37.5763888888889 42.9545454545455  37.3333333333333 43.4318181818182  37.3333333333333 43.9090909090909  C 37.3333333333333 44.4659090909091  37.5520833333333 44.9232954545455  37.9895833333333 45.28125  C 38.4270833333333 45.6392045454545  38.9861111111111 45.8181818181818  39.6666666666667 45  L 56 45  L 56 66.8181818181818  C 56 67.3352272727273  56.2309027777778 67.7826704545455  56.6927083333333 68.1605113636364  C 57.1545138888889 68.5383522727273  57.7013888888889 68.7272727272727  58.3333333333333 68  L 72.3333333333333 68  C 72.9652777777778 68.7272727272727  73.5121527777778 68.5383522727273  73.9739583333333 68.1605113636364  C 74.4357638888889 67.7826704545455  74.6666666666667 67.3352272727273  74 66.8181818181818  L 74 45  L 91 45  C 91.6319444444445 45.8181818181818  92.1788194444445 45.6292613636364  92.640625 45.2514204545455  Z M 133.911458333333 46.8622159090909  C 137.970486111111 51.0184659090909  140 55.7613636363636  140 61.0909090909091  C 140 67.4147727272727  137.265625 72.8139204545455  131.796875 77.2883522727273  C 126.328125 81.7627840909091  119.729166666667 84  112 84  L 32.6666666666667 84  C 23.6736111111111 84  15.9809027777778 81.3849431818182  9.58854166666667 76.1548295454545  C 3.19618055555556 70.9247159090909  0 64.6306818181818  0 57.2727272727273  C 0 52.1022727272727  1.70138888888889 47.3295454545455  5.10416666666667 42.9545454545455  C 8.50694444444444 38.5795454545454  13.0763888888889 35.2982954545454  18.8125 33.1107954545455  C 18.7152777777778 31.9176136363636  18.6666666666667 31.0625  18.6666666666667 30.5454545454545  C 18.6666666666667 22.1136363636364  22.3125 14.9147727272727  29.6041666666667 8.94886363636364  C 36.8958333333333 2.98295454545455  45.6944444444445 0  56 0  C 63.5833333333333 0  70.5225694444445 1.73011363636364  76.8177083333333 5.19034090909091  C 83.1128472222222 8.65056818181819  87.6944444444444 13.2443181818182  90.5625 18.9715909090909  C 94.0138888888889 16.5056818181818  98.0486111111111 15.2727272727273  102.666666666667 15.2727272727273  C 107.819444444444 15.2727272727273  112.21875 16.7642045454545  115.864583333333 19.7471590909091  C 119.510416666667 22.7301136363636  121.333333333333 26.3295454545454  121.333333333333 30.5454545454545  C 121.333333333333 33.5681818181818  120.336805555556 36.3125  118.34375 38.7784090909091  C 124.663194444444 40.0113636363636  129.852430555556 42.7059659090909  133.911458333333 46.8622159090909  Z " fill-rule="nonzero" fill="#e6e1e1" stroke="none" transform="matrix(1 0 0 1 530 350 )" />
  </g>
</svg>